<?xml version="1.0" standalone="no"?><!DOCTYPE svg PUBLIC "-//W3C//DTD SVG 1.1//EN" "http://www.w3.org/Graphics/SVG/1.1/DTD/svg11.dtd"><svg t="1777686074422" class="icon" viewBox="0 0 1024 1024" version="1.1" xmlns="http://www.w3.org/2000/svg" p-id="1837" xmlns:xlink="http://www.w3.org/1999/xlink" width="512" height="512"><path d="M0 512a512 512 0 1 0 1024 0 512 512 0 1 0-1024 0Z" fill="#dbeafe" p-id="1838" class=""></path><path d="M170.666667 512a341.333333 341.333333 0 1 0 682.666666 0 341.333333 341.333333 0 1 0-682.666666 0Z" fill="#2563eb" p-id="1839" class=""></path><path d="M409.6 512m34.133333 0l0 0q34.133333 0 34.133334 34.133333l0 68.266667q0 34.133333-34.133334 34.133333l0 0q-34.133333 0-34.133333-34.133333l0-68.266667q0-34.133333 34.133333-34.133333Z" fill="#dbeafe" p-id="1840" class=""></path><path d="M546.133333 512m34.133334 0l0 0q34.133333 0 34.133333 34.133333l0 68.266667q0 34.133333-34.133333 34.133333l0 0q-34.133333 0-34.133334-34.133333l0-68.266667q0-34.133333 34.133334-34.133333Z" fill="#dbeafe" p-id="1841" class=""></path><path d="M674.304 482.884267A68.266667 68.266667 0 0 1 716.8 546.133333v68.266667a68.266667 68.266667 0 1 1-136.533333 0v-68.266667a68.266667 68.266667 0 0 1 42.496-63.249066V443.733333q0-45.8752-32.426667-78.336-32.426667-32.426667-78.336-32.426666-45.8752 0-78.336 32.426666-32.426667 32.426667-32.426667 78.336v39.150934A68.266667 68.266667 0 0 1 443.733333 546.133333v68.266667a68.266667 68.266667 0 1 1-136.533333 0v-68.266667a68.266667 68.266667 0 0 1 42.496-63.249066V443.733333q0-67.242667 47.547733-114.756266Q444.757333 281.429333 512 281.429333q67.242667 0 114.756267 47.547734Q674.304 376.490667 674.304 443.733333v39.150934z" fill="#FFFFFF" p-id="1842"></path></svg>